{
    "asset" : {
        "generator" : "Khronos glTF Blender I/O v3.4.50",
        "version" : "2.0"
    },
    "scene" : 0,
    "scenes" : [
        {
            "name" : "Scene",
            "nodes" : [
                0,
                1,
                2,
                3,
                4,
                5,
                6,
                7
            ]
        }
    ],
    "nodes" : [
        {
            "mesh" : 0,
            "name" : "NurbsCurve.002",
            "rotation" : [
                -0.09078719466924667,
                -0.04638243466615677,
                -0.7061349153518677,
                0.7006995677947998
            ],
            "scale" : [
                0.08679613471031189,
                0.30455103516578674,
                0.4216249883174896
            ],
            "translation" : [
                0.21868368983268738,
                0.1576814353466034,
                0.2983098030090332
            ]
        },
        {
            "mesh" : 1,
            "name" : "Sphere.003",
            "rotation" : [
                0.704393208026886,
                0,
                0,
                0.7098099589347839
            ],
            "scale" : [
                0.32703283429145813,
                0.37703466415405273,
                0.375711590051651
            ],
            "translation" : [
                0,
                -0.02408301830291748,
                0.09450864791870117
            ]
        },
        {
            "mesh" : 2,
            "name" : "Sphere.004",
            "rotation" : [
                0.34687498211860657,
                -0.6111334562301636,
                0.6174846887588501,
                0.35342103242874146
            ],
            "scale" : [
                0.016961220651865005,
                0.006637678015977144,
                0.0173600222915411
            ],
            "translation" : [
                0.1515110582113266,
                0.027972379699349403,
                0.15833179652690887
            ]
        },
        {
            "mesh" : 3,
            "name" : "NurbsCurve.003",
            "rotation" : [
                -0.09078719466924667,
                -0.04638243466615677,
                -0.7061349153518677,
                0.7006995677947998
            ],
            "scale" : [
                0.08679613471031189,
                0.30455103516578674,
                0.4216249883174896
            ],
            "translation" : [
                0.21851101517677307,
                0.08490869402885437,
                0.2948354482650757
            ]
        },
        {
            "mesh" : 4,
            "name" : "NurbsCurve.004",
            "rotation" : [
                -0.09078719466924667,
                -0.04638243466615677,
                -0.7061349153518677,
                0.7006995677947998
            ],
            "scale" : [
                0.08679613471031189,
                0.30455103516578674,
                0.4216249883174896
            ],
            "translation" : [
                0.21842466294765472,
                0.01213577389717102,
                0.29309821128845215
            ]
        },
        {
            "mesh" : 5,
            "name" : "NurbsCurve.005",
            "rotation" : [
                -0.1460971236228943,
                0.00892533641308546,
                -0.6967958807945251,
                0.7021762132644653
            ],
            "scale" : [
                0.08679617196321487,
                0.3098738491535187,
                0.42162537574768066
            ],
            "translation" : [
                0.2557934522628784,
                0.12110885977745056,
                0.19796021282672882
            ]
        },
        {
            "mesh" : 6,
            "name" : "NurbsCurve.006",
            "rotation" : [
                -0.1460971236228943,
                0.00892533641308546,
                -0.6967958807945251,
                0.7021762132644653
            ],
            "scale" : [
                0.08679617196321487,
                0.3098738491535187,
                0.42162537574768066
            ],
            "translation" : [
                0.254550576210022,
                0.04796364903450012,
                0.19205011427402496
            ]
        },
        {
            "mesh" : 7,
            "name" : "NurbsCurve.001",
            "rotation" : [
                -0.3439277112483978,
                -0.6825701594352722,
                -0.6223234534263611,
                0.16889430582523346
            ],
            "scale" : [
                0.06690497696399689,
                0.3045390546321869,
                0.41844403743743896
            ],
            "translation" : [
                0.18021160364151,
                0.3240952789783478,
                0.13910725712776184
            ]
        }
    ],
    "materials" : [
        {
            "doubleSided" : true,
            "name" : "Material.006",
            "pbrMetallicRoughness" : {
                "baseColorFactor" : [
                    0.38132497668266296,
                    0.7454035878181458,
                    1,
                    1
                ],
                "metallicFactor" : 0,
                "roughnessFactor" : 1
            }
        },
        {
            "doubleSided" : true,
            "name" : "Material.002",
            "pbrMetallicRoughness" : {
                "baseColorFactor" : [
                    0.05951017886400223,
                    0.5840780138969421,
                    1,
                    1
                ],
                "metallicFactor" : 0,
                "roughnessFactor" : 0.4000000059604645
            }
        },
        {
            "doubleSided" : true,
            "name" : "Material.003",
            "pbrMetallicRoughness" : {
                "baseColorFactor" : [
                    0,
                    0,
                    0,
                    1
                ],
                "metallicFactor" : 0,
                "roughnessFactor" : 0.20000000298023224
            }
        },
        {
            "doubleSided" : true,
            "name" : "Material.012",
            "pbrMetallicRoughness" : {
                "baseColorFactor" : [
                    0,
                    0,
                    0,
                    1
                ],
                "metallicFactor" : 0,
                "roughnessFactor" : 1
            }
        }
    ],
    "meshes" : [
        {
            "name" : "NurbsCurve.001",
            "primitives" : [
                {
                    "attributes" : {
                        "POSITION" : 0,
                        "TEXCOORD_0" : 1,
                        "NORMAL" : 2
                    },
                    "indices" : 3,
                    "material" : 0
                }
            ]
        },
        {
            "name" : "Sphere.001",
            "primitives" : [
                {
                    "attributes" : {
                        "POSITION" : 4,
                        "TEXCOORD_0" : 5,
                        "NORMAL" : 6
                    },
                    "indices" : 7,
                    "material" : 1
                }
            ]
        },
        {
            "name" : "Sphere.003",
            "primitives" : [
                {
                    "attributes" : {
                        "POSITION" : 8,
                        "TEXCOORD_0" : 9,
                        "NORMAL" : 10
                    },
                    "indices" : 11,
                    "material" : 2
                }
            ]
        },
        {
            "name" : "NurbsCurve.003",
            "primitives" : [
                {
                    "attributes" : {
                        "POSITION" : 12,
                        "TEXCOORD_0" : 13,
                        "NORMAL" : 14
                    },
                    "indices" : 3,
                    "material" : 0
                }
            ]
        },
        {
            "name" : "NurbsCurve.004",
            "primitives" : [
                {
                    "attributes" : {
                        "POSITION" : 15,
                        "TEXCOORD_0" : 16,
                        "NORMAL" : 17
                    },
                    "indices" : 3,
                    "material" : 0
                }
            ]
        },
        {
            "name" : "NurbsCurve.005",
            "primitives" : [
                {
                    "attributes" : {
                        "POSITION" : 18,
                        "TEXCOORD_0" : 19,
                        "NORMAL" : 20
                    },
                    "indices" : 3,
                    "material" : 0
                }
            ]
        },
        {
            "name" : "NurbsCurve.006",
            "primitives" : [
                {
                    "attributes" : {
                        "POSITION" : 21,
                        "TEXCOORD_0" : 22,
                        "NORMAL" : 23
                    },
                    "indices" : 3,
                    "material" : 0
                }
            ]
        },
        {
            "name" : "NurbsCurve.008",
            "primitives" : [
                {
                    "attributes" : {
                        "POSITION" : 24,
                        "TEXCOORD_0" : 25,
                        "NORMAL" : 26
                    },
                    "indices" : 27,
                    "material" : 3
                }
            ]
        }
    ],
    "accessors" : [
        {
            "bufferView" : 0,
            "componentType" : 5126,
            "count" : 492,
            "max" : [
                0.7007284760475159,
                0.02200000174343586,
                -0.7804509401321411
            ],
            "min" : [
                -0.14051039516925812,
                -0.02200000174343586,
                -0.9497156739234924
            ],
            "type" : "VEC3"
        },
        {
            "bufferView" : 1,
            "componentType" : 5126,
            "count" : 492,
            "type" : "VEC2"
        },
        {
            "bufferView" : 2,
            "componentType" : 5126,
            "count" : 492,
            "type" : "VEC3"
        },
        {
            "bufferView" : 3,
            "componentType" : 5123,
            "count" : 2580,
            "type" : "SCALAR"
        },
        {
            "bufferView" : 4,
            "componentType" : 5126,
            "count" : 559,
            "max" : [
                0.6155787706375122,
                0.4815896451473236,
                0.6122378706932068
            ],
            "min" : [
                -0.6155791282653809,
                -1.350502848625183,
                -0.618920624256134
            ],
            "type" : "VEC3"
        },
        {
            "bufferView" : 5,
            "componentType" : 5126,
            "count" : 559,
            "type" : "VEC2"
        },
        {
            "bufferView" : 6,
            "componentType" : 5126,
            "count" : 559,
            "type" : "VEC3"
        },
        {
            "bufferView" : 7,
            "componentType" : 5123,
            "count" : 2880,
            "type" : "SCALAR"
        },
        {
            "bufferView" : 8,
            "componentType" : 5126,
            "count" : 559,
            "max" : [
                0.9999997019767761,
                1,
                0.9999993443489075
            ],
            "min" : [
                -0.9999990463256836,
                -1,
                -1
            ],
            "type" : "VEC3"
        },
        {
            "bufferView" : 9,
            "componentType" : 5126,
            "count" : 559,
            "type" : "VEC2"
        },
        {
            "bufferView" : 10,
            "componentType" : 5126,
            "count" : 559,
            "type" : "VEC3"
        },
        {
            "bufferView" : 11,
            "componentType" : 5123,
            "count" : 2880,
            "type" : "SCALAR"
        },
        {
            "bufferView" : 12,
            "componentType" : 5126,
            "count" : 492,
            "max" : [
                0.7007284760475159,
                0.02200000174343586,
                -0.7804509401321411
            ],
            "min" : [
                -0.14051039516925812,
                -0.02200000174343586,
                -0.9497156739234924
            ],
            "type" : "VEC3"
        },
        {
            "bufferView" : 13,
            "componentType" : 5126,
            "count" : 492,
            "type" : "VEC2"
        },
        {
            "bufferView" : 14,
            "componentType" : 5126,
            "count" : 492,
            "type" : "VEC3"
        },
        {
            "bufferView" : 15,
            "componentType" : 5126,
            "count" : 492,
            "max" : [
                0.7007284760475159,
                0.02200000174343586,
                -0.7804509401321411
            ],
            "min" : [
                -0.14051039516925812,
                -0.02200000174343586,
                -0.9497156739234924
            ],
            "type" : "VEC3"
        },
        {
            "bufferView" : 16,
            "componentType" : 5126,
            "count" : 492,
            "type" : "VEC2"
        },
        {
            "bufferView" : 17,
            "componentType" : 5126,
            "count" : 492,
            "type" : "VEC3"
        },
        {
            "bufferView" : 18,
            "componentType" : 5126,
            "count" : 492,
            "max" : [
                0.7007284760475159,
                0.02200000174343586,
                -0.7804509401321411
            ],
            "min" : [
                -0.14051039516925812,
                -0.02200000174343586,
                -0.9497156739234924
            ],
            "type" : "VEC3"
        },
        {
            "bufferView" : 19,
            "componentType" : 5126,
            "count" : 492,
            "type" : "VEC2"
        },
        {
            "bufferView" : 20,
            "componentType" : 5126,
            "count" : 492,
            "type" : "VEC3"
        },
        {
            "bufferView" : 21,
            "componentType" : 5126,
            "count" : 492,
            "max" : [
                0.7007284760475159,
                0.02200000174343586,
                -0.7804509401321411
            ],
            "min" : [
                -0.14051039516925812,
                -0.02200000174343586,
                -0.9497156739234924
            ],
            "type" : "VEC3"
        },
        {
            "bufferView" : 22,
            "componentType" : 5126,
            "count" : 492,
            "type" : "VEC2"
        },
        {
            "bufferView" : 23,
            "componentType" : 5126,
            "count" : 492,
            "type" : "VEC3"
        },
        {
            "bufferView" : 24,
            "componentType" : 5126,
            "count" : 188,
            "max" : [
                0.7179809808731079,
                0.010000000707805157,
                -0.924977719783783
            ],
            "min" : [
                -0.14796601235866547,
                -0.010000000707805157,
                -0.9945387840270996
            ],
            "type" : "VEC3"
        },
        {
            "bufferView" : 25,
            "componentType" : 5126,
            "count" : 188,
            "type" : "VEC2"
        },
        {
            "bufferView" : 26,
            "componentType" : 5126,
            "count" : 188,
            "type" : "VEC3"
        },
        {
            "bufferView" : 27,
            "componentType" : 5123,
            "count" : 852,
            "type" : "SCALAR"
        }
    ],
    "bufferViews" : [
        {
            "buffer" : 0,
            "byteLength" : 5904,
            "byteOffset" : 0,
            "target" : 34962
        },
        {
            "buffer" : 0,
            "byteLength" : 3936,
            "byteOffset" : 5904,
            "target" : 34962
        },
        {
            "buffer" : 0,
            "byteLength" : 5904,
            "byteOffset" : 9840,
            "target" : 34962
        },
        {
            "buffer" : 0,
            "byteLength" : 5160,
            "byteOffset" : 15744,
            "target" : 34963
        },
        {
            "buffer" : 0,
            "byteLength" : 6708,
            "byteOffset" : 20904,
            "target" : 34962
        },
        {
            "buffer" : 0,
            "byteLength" : 4472,
            "byteOffset" : 27612,
            "target" : 34962
        },
        {
            "buffer" : 0,
            "byteLength" : 6708,
            "byteOffset" : 32084,
            "target" : 34962
        },
        {
            "buffer" : 0,
            "byteLength" : 5760,
            "byteOffset" : 38792,
            "target" : 34963
        },
        {
            "buffer" : 0,
            "byteLength" : 6708,
            "byteOffset" : 44552,
            "target" : 34962
        },
        {
            "buffer" : 0,
            "byteLength" : 4472,
            "byteOffset" : 51260,
            "target" : 34962
        },
        {
            "buffer" : 0,
            "byteLength" : 6708,
            "byteOffset" : 55732,
            "target" : 34962
        },
        {
            "buffer" : 0,
            "byteLength" : 5760,
            "byteOffset" : 62440,
            "target" : 34963
        },
        {
            "buffer" : 0,
            "byteLength" : 5904,
            "byteOffset" : 68200,
            "target" : 34962
        },
        {
            "buffer" : 0,
            "byteLength" : 3936,
            "byteOffset" : 74104,
            "target" : 34962
        },
        {
            "buffer" : 0,
            "byteLength" : 5904,
            "byteOffset" : 78040,
            "target" : 34962
        },
        {
            "buffer" : 0,
            "byteLength" : 5904,
            "byteOffset" : 83944,
            "target" : 34962
        },
        {
            "buffer" : 0,
            "byteLength" : 3936,
            "byteOffset" : 89848,
            "target" : 34962
        },
        {
            "buffer" : 0,
            "byteLength" : 5904,
            "byteOffset" : 93784,
            "target" : 34962
        },
        {
            "buffer" : 0,
            "byteLength" : 5904,
            "byteOffset" : 99688,
            "target" : 34962
        },
        {
            "buffer" : 0,
            "byteLength" : 3936,
            "byteOffset" : 105592,
            "target" : 34962
        },
        {
            "buffer" : 0,
            "byteLength" : 5904,
            "byteOffset" : 109528,
            "target" : 34962
        },
        {
            "buffer" : 0,
            "byteLength" : 5904,
            "byteOffset" : 115432,
            "target" : 34962
        },
        {
            "buffer" : 0,
            "byteLength" : 3936,
            "byteOffset" : 121336,
            "target" : 34962
        },
        {
            "buffer" : 0,
            "byteLength" : 5904,
            "byteOffset" : 125272,
            "target" : 34962
        },
        {
            "buffer" : 0,
            "byteLength" : 2256,
            "byteOffset" : 131176,
            "target" : 34962
        },
        {
            "buffer" : 0,
            "byteLength" : 1504,
            "byteOffset" : 133432,
            "target" : 34962
        },
        {
            "buffer" : 0,
            "byteLength" : 2256,
            "byteOffset" : 134936,
            "target" : 34962
        },
        {
            "buffer" : 0,
            "byteLength" : 1704,
            "byteOffset" : 137192,
            "target" : 34963
        }
    ],
    "buffers" : [
        {
            "byteLength" : 138896,
            "uri" : "fish.bin"
        }
    ]
}
